<svg xmlns="http://www.w3.org/2000/svg" viewBox="0 0 64 64">
  <defs>
    <style>
      @keyframes spin-slow {
        from { transform: rotate(0deg); }
        to { transform: rotate(360deg); }
      }
      @keyframes spin-medium {
        from { transform: rotate(0deg); }
        to { transform: rotate(-360deg); }
      }
      @keyframes spin-fast {
        from { transform: rotate(0deg); }
        to { transform: rotate(360deg); }
      }
      @keyframes pulse {
        0%, 100% { opacity: 1; }
        50% { opacity: 0.6; }
      }
      .rotor-outer {
        animation: spin-slow 12s linear infinite;
        transform-origin: 32px 32px;
      }
      .rotor-middle {
        animation: spin-medium 8s linear infinite;
        transform-origin: 32px 32px;
      }
      .rotor-inner {
        animation: spin-fast 5s linear infinite;
        transform-origin: 32px 32px;
      }
      .center-pulse {
        animation: pulse 2s ease-in-out infinite;
      }
    </style>
  </defs>

  <!-- Background -->
  <circle cx="32" cy="32" r="30" fill="#0f172a"/>

  <!-- Outer rotor group -->
  <g class="rotor-outer">
    <circle cx="32" cy="32" r="26" fill="none" stroke="#1e3a5f" stroke-width="4"/>
    <circle cx="32" cy="32" r="26" fill="none" stroke="#3b82f6" stroke-width="2"
            stroke-dasharray="8 4" stroke-dashoffset="0"/>
    <circle cx="32" cy="6" r="2" fill="#3b82f6"/>
    <circle cx="58" cy="32" r="2" fill="#3b82f6"/>
    <circle cx="32" cy="58" r="2" fill="#3b82f6"/>
    <circle cx="6" cy="32" r="2" fill="#3b82f6"/>
  </g>

  <!-- Middle rotor group -->
  <g class="rotor-middle">
    <circle cx="32" cy="32" r="18" fill="none" stroke="#1e3a5f" stroke-width="3"/>
    <circle cx="32" cy="32" r="18" fill="none" stroke="#1d4ed8" stroke-width="2"
            stroke-dasharray="6 3" stroke-dashoffset="2"/>
    <circle cx="32" cy="14" r="1.5" fill="#1d4ed8"/>
    <circle cx="50" cy="32" r="1.5" fill="#1d4ed8"/>
    <circle cx="32" cy="50" r="1.5" fill="#1d4ed8"/>
    <circle cx="14" cy="32" r="1.5" fill="#1d4ed8"/>
    <circle cx="44.7" cy="19.3" r="1.2" fill="#1d4ed8"/>
    <circle cx="44.7" cy="44.7" r="1.2" fill="#1d4ed8"/>
    <circle cx="19.3" cy="44.7" r="1.2" fill="#1d4ed8"/>
    <circle cx="19.3" cy="19.3" r="1.2" fill="#1d4ed8"/>
  </g>

  <!-- Inner rotor group -->
  <g class="rotor-inner">
    <circle cx="32" cy="32" r="10" fill="none" stroke="#1e3a5f" stroke-width="2"/>
    <circle cx="32" cy="32" r="10" fill="none" stroke="#93c5fd" stroke-width="1.5"
            stroke-dasharray="4 2" stroke-dashoffset="1"/>
    <circle cx="32" cy="22" r="1" fill="#93c5fd"/>
    <circle cx="42" cy="32" r="1" fill="#93c5fd"/>
    <circle cx="32" cy="42" r="1" fill="#93c5fd"/>
    <circle cx="22" cy="32" r="1" fill="#93c5fd"/>
  </g>

  <!-- Center hub -->
  <circle cx="32" cy="32" r="4" fill="#60a5fa" class="center-pulse"/>
  <circle cx="32" cy="32" r="2" fill="#0f172a"/>
</svg>
