<svg xmlns="http://www.w3.org/2000/svg" viewBox="0 0 64 64">
  <defs>
    <style>
      @keyframes spin-slow {
        from { transform: rotate(0deg); }
        to { transform: rotate(360deg); }
      }
      @keyframes spin-medium {
        from { transform: rotate(0deg); }
        to { transform: rotate(-360deg); }
      }
      @keyframes pulse {
        0%, 100% { opacity: 1; }
        50% { opacity: 0.7; }
      }
      .rotor-outer {
        animation: spin-slow 12s linear infinite;
        transform-origin: 32px 32px;
      }
      .rotor-middle {
        animation: spin-medium 8s linear infinite;
        transform-origin: 32px 32px;
      }
      .center-e {
        animation: pulse 3s ease-in-out infinite;
      }
    </style>
    <!-- Mask for the "e" opening -->
    <mask id="e-mask" maskUnits="userSpaceOnUse" x="0" y="0" width="64" height="64">
      <rect x="0" y="0" width="64" height="64" fill="white"/>
      <path d="M 38 33.5 A 7 7 0 0 1 34.5 39.6" fill="none" stroke="black" stroke-width="5"/>
    </mask>
  </defs>

  <!-- Outer rotor group -->
  <g class="rotor-outer">
    <circle cx="32" cy="32" r="26" fill="none" stroke="#e94560" stroke-width="2"
            stroke-dasharray="8 4" stroke-dashoffset="0"/>
    <circle cx="32" cy="6" r="2" fill="#e94560"/>
    <circle cx="58" cy="32" r="2" fill="#e94560"/>
    <circle cx="32" cy="58" r="2" fill="#e94560"/>
    <circle cx="6" cy="32" r="2" fill="#e94560"/>
  </g>

  <!-- Middle rotor group -->
  <g class="rotor-middle">
    <circle cx="32" cy="32" r="18" fill="none" stroke="#0f3460" stroke-width="2"
            stroke-dasharray="6 3" stroke-dashoffset="2"/>
    <circle cx="32" cy="14" r="1.5" fill="#0f3460"/>
    <circle cx="50" cy="32" r="1.5" fill="#0f3460"/>
    <circle cx="32" cy="50" r="1.5" fill="#0f3460"/>
    <circle cx="14" cy="32" r="1.5" fill="#0f3460"/>
    <circle cx="44.7" cy="19.3" r="1.2" fill="#0f3460"/>
    <circle cx="44.7" cy="44.7" r="1.2" fill="#0f3460"/>
    <circle cx="19.3" cy="44.7" r="1.2" fill="#0f3460"/>
    <circle cx="19.3" cy="19.3" r="1.2" fill="#0f3460"/>
  </g>

  <!-- Center "e" - circular/geometric style -->
  <g class="center-e" mask="url(#e-mask)">
    <!-- Circular "e" - the round body -->
    <circle cx="32" cy="32" r="7" fill="none" stroke="#e94560" stroke-width="3"
            stroke-linecap="round"/>
    <!-- The crossbar of the "e" -->
    <line x1="25" y1="32" x2="39" y2="32" stroke="#e94560" stroke-width="3" stroke-linecap="round"/>
  </g>
</svg>
