<svg viewBox="0 0 24 24" fill="none" xmlns="http://www.w3.org/2000/svg">
  <!-- Anatomy Quiz: Clean body silhouette with pulse line -->
  <rect x="1" y="1" width="22" height="22" rx="2" fill="#fce7f3"/>

  <!-- Simple body silhouette -->
  <path d="M12 3 Q15 3 15 6 Q15 8 12 8 Q9 8 9 6 Q9 3 12 3 Z
           M9 9 L7 9 L5 15 L8 15 L7 21 L10 21 L10 15 L14 15 L14 21 L17 21 L16 15 L19 15 L17 9 L15 9 Z"
        fill="#f472b6"/>

  <!-- Heartbeat/pulse line across chest -->
  <path d="M5 12 L9 12 L10 10 L11 14 L12 9 L13 13 L14 11 L15 12 L19 12"
        fill="none" stroke="#be185d" stroke-width="1.5" stroke-linecap="round" stroke-linejoin="round"/>
</svg>
