<svg viewBox="0 0 24 24" fill="none" xmlns="http://www.w3.org/2000/svg">
  <!-- Campixu: Tents with nonogram clues -->

  <!-- Background (forest) -->
  <rect x="1" y="1" width="22" height="22" rx="2" fill="#dcfce7"/>

  <!-- Grid -->
  <rect x="5" y="5" width="16" height="16" fill="#f0fdf4" stroke="#22c55e" stroke-width="0.5"/>

  <!-- Grid lines -->
  <line x1="9" y1="5" x2="9" y2="21" stroke="#bbf7d0" stroke-width="0.3"/>
  <line x1="13" y1="5" x2="13" y2="21" stroke="#bbf7d0" stroke-width="0.3"/>
  <line x1="17" y1="5" x2="17" y2="21" stroke="#bbf7d0" stroke-width="0.3"/>
  <line x1="5" y1="9" x2="21" y2="9" stroke="#bbf7d0" stroke-width="0.3"/>
  <line x1="5" y1="13" x2="21" y2="13" stroke="#bbf7d0" stroke-width="0.3"/>
  <line x1="5" y1="17" x2="21" y2="17" stroke="#bbf7d0" stroke-width="0.3"/>

  <!-- Trees -->
  <path d="M7 8 L5.5 11 L8.5 11 Z" fill="#22c55e"/>
  <rect x="6.5" y="11" width="1" height="1.5" fill="#78350f"/>

  <path d="M15 12 L13.5 15 L16.5 15 Z" fill="#22c55e"/>
  <rect x="14.5" y="15" width="1" height="1.5" fill="#78350f"/>

  <path d="M11 16 L9.5 19 L12.5 19 Z" fill="#22c55e"/>
  <rect x="10.5" y="19" width="1" height="1.5" fill="#78350f"/>

  <!-- Tents -->
  <path d="M11 6 L9 9 L13 9 Z" fill="#f97316" stroke="#ea580c" stroke-width="0.5"/>
  <line x1="11" y1="6" x2="11" y2="9" stroke="#ea580c" stroke-width="0.5"/>

  <path d="M19 10 L17 13 L21 13 Z" fill="#f97316" stroke="#ea580c" stroke-width="0.5"/>
  <line x1="19" y1="10" x2="19" y2="13" stroke="#ea580c" stroke-width="0.5"/>

  <!-- Row clues (left side) -->
  <text x="3" y="7.5" font-family="Arial" font-size="2.5" font-weight="bold" fill="#16a34a" text-anchor="middle">1</text>
  <text x="3" y="11.5" font-family="Arial" font-size="2.5" font-weight="bold" fill="#16a34a" text-anchor="middle">1</text>
  <text x="3" y="15.5" font-family="Arial" font-size="2.5" font-weight="bold" fill="#16a34a" text-anchor="middle">0</text>
  <text x="3" y="19.5" font-family="Arial" font-size="2.5" font-weight="bold" fill="#16a34a" text-anchor="middle">1</text>

  <!-- Column clues (top) -->
  <text x="7" y="4" font-family="Arial" font-size="2.5" font-weight="bold" fill="#16a34a" text-anchor="middle">0</text>
  <text x="11" y="4" font-family="Arial" font-size="2.5" font-weight="bold" fill="#16a34a" text-anchor="middle">1</text>
  <text x="15" y="4" font-family="Arial" font-size="2.5" font-weight="bold" fill="#16a34a" text-anchor="middle">0</text>
  <text x="19" y="4" font-family="Arial" font-size="2.5" font-weight="bold" fill="#16a34a" text-anchor="middle">2</text>
</svg>
