<svg viewBox="0 0 24 24" fill="none" xmlns="http://www.w3.org/2000/svg">
  <!-- Chimp Test: Remember and click numbers in order -->

  <!-- Background -->
  <rect x="1" y="1" width="22" height="22" rx="2" fill="#ede9fe"/>

  <!-- Grid of number boxes -->
  <!-- Box 1 -->
  <rect x="2" y="3" width="6" height="5" rx="1" fill="#8b5cf6"/>
  <text x="5" y="6.5" font-family="Arial" font-size="4" font-weight="bold" fill="#ffffff" text-anchor="middle">1</text>

  <!-- Box 2 -->
  <rect x="9" y="3" width="6" height="5" rx="1" fill="#8b5cf6"/>
  <text x="12" y="6.5" font-family="Arial" font-size="4" font-weight="bold" fill="#ffffff" text-anchor="middle">2</text>

  <!-- Box 3 -->
  <rect x="16" y="3" width="6" height="5" rx="1" fill="#8b5cf6"/>
  <text x="19" y="6.5" font-family="Arial" font-size="4" font-weight="bold" fill="#ffffff" text-anchor="middle">3</text>

  <!-- Hidden boxes (clicked state) -->
  <rect x="2" y="10" width="6" height="5" rx="1" fill="#c4b5fd"/>
  <rect x="9" y="10" width="6" height="5" rx="1" fill="#7c3aed"/>
  <text x="12" y="13.5" font-family="Arial" font-size="4" font-weight="bold" fill="#ffffff" text-anchor="middle">4</text>
  <rect x="16" y="10" width="6" height="5" rx="1" fill="#c4b5fd"/>

  <!-- More boxes -->
  <rect x="2" y="17" width="6" height="5" rx="1" fill="#7c3aed"/>
  <text x="5" y="20.5" font-family="Arial" font-size="4" font-weight="bold" fill="#ffffff" text-anchor="middle">5</text>
  <rect x="9" y="17" width="6" height="5" rx="1" fill="#c4b5fd"/>
  <rect x="16" y="17" width="6" height="5" rx="1" fill="#7c3aed"/>
  <text x="19" y="20.5" font-family="Arial" font-size="4" font-weight="bold" fill="#ffffff" text-anchor="middle">6</text>

  <!-- Click cursor -->
  <path d="M14 13 L16 15 L14.5 15 L15 17" fill="none" stroke="#1f2937" stroke-width="1" stroke-linecap="round"/>
</svg>
