<svg viewBox="0 0 24 24" fill="none" xmlns="http://www.w3.org/2000/svg">
  <!-- Famous Paintings: Art history quiz -->

  <!-- Background -->
  <rect x="1" y="1" width="22" height="22" rx="2" fill="#fef3c7"/>

  <!-- Ornate picture frame -->
  <rect x="3" y="3" width="18" height="15" rx="1" fill="#92400e" stroke="#78350f" stroke-width="1"/>
  <rect x="4.5" y="4.5" width="15" height="12" rx="0.5" fill="#fef9c3"/>

  <!-- Painting inside - abstract landscape -->
  <rect x="5" y="5" width="14" height="11" fill="#7dd3fc"/>
  <!-- Mountains -->
  <path d="M5 16 L9 9 L13 14 L16 8 L19 16 Z" fill="#166534"/>
  <!-- Sun -->
  <circle cx="16" cy="7" r="2" fill="#fbbf24"/>
  <!-- Water/field -->
  <rect x="5" y="13" width="14" height="3" fill="#86efac"/>

  <!-- Palette -->
  <ellipse cx="8" cy="20" rx="4" ry="2.5" fill="#d4a574" stroke="#92400e" stroke-width="0.5"/>
  <circle cx="6" cy="19" r="1" fill="#ef4444"/>
  <circle cx="8" cy="18.5" r="1" fill="#3b82f6"/>
  <circle cx="10" cy="19" r="1" fill="#eab308"/>
  <circle cx="7" cy="20.5" r="1" fill="#22c55e"/>
  <ellipse cx="5.5" cy="20" rx="1" ry="0.8" fill="#d4a574"/>

  <!-- Paintbrush -->
  <line x1="14" y1="21" x2="20" y2="18" stroke="#78350f" stroke-width="1.2" stroke-linecap="round"/>
  <path d="M20 18 L22 17 L21.5 18.5 L20 18" fill="#4b5563"/>
</svg>
