<svg width="64" height="64" viewBox="0 0 64 64" fill="none" xmlns="http://www.w3.org/2000/svg">
  <rect width="64" height="64" rx="14" fill="#16A34A"/>
  <rect x="12" y="12" width="20" height="28" rx="4" fill="#FFFFFF"/>
  <rect x="24" y="20" width="20" height="28" rx="4" fill="#F8FAFC" stroke="#E2E8F0" stroke-width="2"/>
  <path d="M40 12L42.5 17L48 17.8L44 21.8L45 27L40 24.2L35 27L36 21.8L32 17.8L37.5 17L40 12Z" fill="#F97316"/>
  <path d="M19 36C17 32 21 28 25 30C29 28 33 32 31 36C29 40 25 44 25 44C25 44 21 40 19 36Z" fill="#DC2626"/>
</svg>
