<svg viewBox="0 0 24 24" fill="none" xmlns="http://www.w3.org/2000/svg">
  <!-- Background -->
  <rect x="1" y="1" width="22" height="22" rx="2" fill="#1e1b4b"/>

  <!-- L tetromino (top left) -->
  <rect x="2" y="2" width="4" height="4" fill="#a855f7"/>
  <rect x="2" y="6" width="4" height="4" fill="#a855f7"/>
  <rect x="6" y="6" width="4" height="4" fill="#a855f7"/>

  <!-- I tetromino (top right, vertical) -->
  <rect x="18" y="2" width="4" height="4" fill="#c084fc"/>
  <rect x="18" y="6" width="4" height="4" fill="#c084fc"/>
  <rect x="18" y="10" width="4" height="4" fill="#c084fc"/>

  <!-- T tetromino (bottom left) -->
  <rect x="2" y="14" width="4" height="4" fill="#8b5cf6"/>
  <rect x="6" y="14" width="4" height="4" fill="#8b5cf6"/>
  <rect x="10" y="14" width="4" height="4" fill="#8b5cf6"/>
  <rect x="6" y="18" width="4" height="4" fill="#8b5cf6"/>

  <!-- S tetromino (bottom right) -->
  <rect x="14" y="16" width="4" height="4" fill="#7c3aed"/>
  <rect x="18" y="16" width="4" height="4" fill="#7c3aed"/>
  <rect x="14" y="20" width="4" height="3" fill="#7c3aed"/>
  <rect x="10" y="20" width="4" height="3" fill="#7c3aed"/>
</svg>
