<svg viewBox="0 0 24 24" fill="none" xmlns="http://www.w3.org/2000/svg">
  <!-- White background -->
  <rect x="1" y="1" width="22" height="22" rx="2" fill="#ffffff"/>

  <!-- Maze walls -->
  <path d="M1 1 L23 1 L23 23 L1 23 Z" fill="none" stroke="#22c55e" stroke-width="2"/>

  <!-- Internal maze walls -->
  <path d="M6 1 L6 6 M6 10 L6 18 M1 6 L10 6 M6 10 L14 10 M10 6 L10 14 M14 1 L14 6 M18 6 L18 14 M14 10 L18 10 M10 14 L10 18 M14 14 L23 14 M14 18 L18 18 M18 14 L18 23 M1 18 L6 18"
        stroke="#22c55e" stroke-width="1.5" stroke-linecap="round"/>

  <!-- Start marker -->
  <circle cx="3.5" cy="3.5" r="1.5" fill="#4ade80"/>

  <!-- End marker -->
  <circle cx="20.5" cy="20.5" r="1.5" fill="#ef4444"/>
</svg>
