<svg viewBox="0 0 24 24" fill="none" xmlns="http://www.w3.org/2000/svg">
  <!-- Maze: Actual maze pattern -->

  <!-- Outer border -->
  <rect x="2" y="2" width="20" height="20" rx="1" fill="#f0fdf4" stroke="#22c55e" stroke-width="1.5"/>

  <!-- Maze walls -->
  <path d="
    M2 6 L8 6
    M6 6 L6 10
    M10 2 L10 6
    M10 6 L14 6
    M14 2 L14 10
    M18 6 L22 6
    M18 6 L18 10
    M2 10 L6 10
    M10 10 L10 14
    M14 10 L18 10
    M6 14 L10 14
    M14 14 L14 18
    M18 14 L18 22
    M2 14 L2 14
    M6 14 L6 18
    M2 18 L6 18
    M10 18 L14 18
    M10 18 L10 22
  " stroke="#16a34a" stroke-width="1.2" stroke-linecap="round"/>

  <!-- Start (top-left opening) -->
  <circle cx="4" cy="4" r="1.2" fill="#4ade80"/>

  <!-- End (bottom-right) -->
  <circle cx="20" cy="20" r="1.2" fill="#ef4444"/>
</svg>
