<svg viewBox="0 0 24 24" fill="none" xmlns="http://www.w3.org/2000/svg">
  <!-- Netgame: Network of connected pipes/wires -->

  <!-- Background -->
  <rect x="1" y="1" width="22" height="22" rx="2" fill="#ecfdf5"/>

  <!-- Grid cells -->
  <rect x="1" y="1" width="7.5" height="7.5" stroke="#a7f3d0" stroke-width="0.5" fill="none"/>
  <rect x="8.5" y="1" width="7" height="7.5" stroke="#a7f3d0" stroke-width="0.5" fill="none"/>
  <rect x="15.5" y="1" width="7.5" height="7.5" stroke="#a7f3d0" stroke-width="0.5" fill="none"/>
  <rect x="1" y="8.5" width="7.5" height="7" stroke="#a7f3d0" stroke-width="0.5" fill="none"/>
  <rect x="8.5" y="8.5" width="7" height="7" stroke="#a7f3d0" stroke-width="0.5" fill="none"/>
  <rect x="15.5" y="8.5" width="7.5" height="7" stroke="#a7f3d0" stroke-width="0.5" fill="none"/>

  <!-- Network connections (pipes) -->
  <!-- Center hub -->
  <circle cx="12" cy="12" r="2" fill="#10b981"/>

  <!-- Connected pipes -->
  <line x1="12" y1="12" x2="12" y2="4.5" stroke="#10b981" stroke-width="3" stroke-linecap="round"/>
  <line x1="12" y1="12" x2="19.5" y2="12" stroke="#10b981" stroke-width="3" stroke-linecap="round"/>
  <line x1="12" y1="12" x2="12" y2="19.5" stroke="#10b981" stroke-width="3" stroke-linecap="round"/>
  <line x1="12" y1="12" x2="4.5" y2="12" stroke="#10b981" stroke-width="3" stroke-linecap="round"/>

  <!-- Corner connections -->
  <path d="M4.5 4.5 L4.5 8.5 L8.5 8.5" stroke="#059669" stroke-width="2.5" fill="none" stroke-linecap="round" stroke-linejoin="round"/>
  <path d="M19.5 4.5 L19.5 8.5 L15.5 8.5" stroke="#059669" stroke-width="2.5" fill="none" stroke-linecap="round" stroke-linejoin="round"/>
  <path d="M4.5 19.5 L4.5 15.5 L8.5 15.5" stroke="#059669" stroke-width="2.5" fill="none" stroke-linecap="round" stroke-linejoin="round"/>
  <path d="M19.5 19.5 L19.5 15.5 L15.5 15.5" stroke="#059669" stroke-width="2.5" fill="none" stroke-linecap="round" stroke-linejoin="round"/>

  <!-- End nodes -->
  <circle cx="4.5" cy="4.5" r="1.5" fill="#059669"/>
  <circle cx="19.5" cy="4.5" r="1.5" fill="#059669"/>
  <circle cx="4.5" cy="19.5" r="1.5" fill="#059669"/>
  <circle cx="19.5" cy="19.5" r="1.5" fill="#059669"/>
</svg>
