<svg viewBox="0 0 24 24" fill="none" xmlns="http://www.w3.org/2000/svg">
  <!-- Norinori: Dominoes in regions - cleaner approach -->

  <!-- Background -->
  <rect x="1" y="1" width="22" height="22" rx="2" fill="#ede9fe"/>

  <!-- Region outlines only (no fill) -->
  <path d="M1 12 L12 12 L12 1" stroke="#8b5cf6" stroke-width="2.5" fill="none"/>
  <path d="M12 23 L12 12 L23 12" stroke="#8b5cf6" stroke-width="2.5" fill="none"/>

  <!-- Domino 1: Horizontal in top-left region -->
  <rect x="3" y="4" width="7" height="4" rx="1" fill="#8b5cf6"/>
  <circle cx="5" cy="6" r="1" fill="#ffffff"/>
  <circle cx="8" cy="6" r="1" fill="#ffffff"/>

  <!-- Domino 2: Vertical in top-right region -->
  <rect x="15" y="3" width="4" height="7" rx="1" fill="#6366f1"/>
  <circle cx="17" cy="5" r="1" fill="#ffffff"/>
  <circle cx="17" cy="8" r="1" fill="#ffffff"/>

  <!-- Domino 3: Vertical in bottom-left region -->
  <rect x="4" y="14" width="4" height="7" rx="1" fill="#6366f1"/>
  <circle cx="6" cy="16" r="1" fill="#ffffff"/>
  <circle cx="6" cy="19" r="1" fill="#ffffff"/>

  <!-- Domino 4: Horizontal in bottom-right region -->
  <rect x="14" y="16" width="7" height="4" rx="1" fill="#8b5cf6"/>
  <circle cx="16" cy="18" r="1" fill="#ffffff"/>
  <circle cx="19" cy="18" r="1" fill="#ffffff"/>
</svg>
