<svg viewBox="0 0 24 24" fill="none" xmlns="http://www.w3.org/2000/svg">
  <!-- Periodic Table Quiz: Element symbols and names -->

  <!-- Background -->
  <rect x="1" y="1" width="22" height="22" rx="2" fill="#ecfeff"/>

  <!-- Main element card (featured) -->
  <rect x="6" y="3" width="12" height="12" rx="1" fill="#ffffff" stroke="#06b6d4" stroke-width="1.5"/>
  <text x="8" y="6.5" font-family="Arial" font-size="2.5" fill="#64748b">26</text>
  <text x="12" y="11" font-family="Arial" font-size="6" font-weight="bold" fill="#0891b2" text-anchor="middle">Fe</text>
  <text x="12" y="14" font-family="Arial" font-size="2.5" fill="#64748b" text-anchor="middle">Iron</text>

  <!-- Small element tiles (periodic table suggestion) -->
  <rect x="2" y="3" width="3" height="3" rx="0.3" fill="#fecaca" stroke="#ef4444" stroke-width="0.5"/>
  <text x="3.5" y="5" font-family="Arial" font-size="2" font-weight="bold" fill="#dc2626" text-anchor="middle">H</text>

  <rect x="19" y="3" width="3" height="3" rx="0.3" fill="#e9d5ff" stroke="#a855f7" stroke-width="0.5"/>
  <text x="20.5" y="5" font-family="Arial" font-size="2" font-weight="bold" fill="#9333ea" text-anchor="middle">He</text>

  <rect x="2" y="7" width="3" height="3" rx="0.3" fill="#fed7aa" stroke="#f97316" stroke-width="0.5"/>
  <text x="3.5" y="9" font-family="Arial" font-size="2" font-weight="bold" fill="#ea580c" text-anchor="middle">Li</text>

  <rect x="19" y="7" width="3" height="3" rx="0.3" fill="#bbf7d0" stroke="#22c55e" stroke-width="0.5"/>
  <text x="20.5" y="9" font-family="Arial" font-size="2" font-weight="bold" fill="#16a34a" text-anchor="middle">Ne</text>

  <!-- Question mark overlay -->
  <circle cx="18" cy="18" r="4" fill="#0891b2"/>
  <text x="18" y="20.5" font-family="Arial" font-size="6" font-weight="bold" fill="#ffffff" text-anchor="middle">?</text>

  <!-- Bottom element row hint -->
  <rect x="2" y="17" width="4" height="4" rx="0.3" fill="#dbeafe" stroke="#3b82f6" stroke-width="0.5"/>
  <text x="4" y="19.8" font-family="Arial" font-size="2.5" font-weight="bold" fill="#2563eb" text-anchor="middle">Au</text>

  <rect x="7" y="17" width="4" height="4" rx="0.3" fill="#fef3c7" stroke="#eab308" stroke-width="0.5"/>
  <text x="9" y="19.8" font-family="Arial" font-size="2.5" font-weight="bold" fill="#ca8a04" text-anchor="middle">Ag</text>
</svg>
