<svg viewBox="0 0 24 24" fill="none" xmlns="http://www.w3.org/2000/svg">
  <!-- Range: Row/column visibility clues -->

  <!-- Background grid -->
  <rect x="4" y="4" width="16" height="16" rx="1" fill="#eff6ff"/>
  <line x1="9.33" y1="4" x2="9.33" y2="20" stroke="#bfdbfe" stroke-width="0.5"/>
  <line x1="14.67" y1="4" x2="14.67" y2="20" stroke="#bfdbfe" stroke-width="0.5"/>
  <line x1="4" y1="9.33" x2="20" y2="9.33" stroke="#bfdbfe" stroke-width="0.5"/>
  <line x1="4" y1="14.67" x2="20" y2="14.67" stroke="#bfdbfe" stroke-width="0.5"/>
  <rect x="4" y="4" width="16" height="16" rx="1" fill="none" stroke="#3b82f6" stroke-width="1.5"/>

  <!-- Shaded cells showing range pattern -->
  <rect x="4" y="4" width="5.33" height="5.33" fill="#60a5fa"/>
  <rect x="9.33" y="4" width="5.34" height="5.33" fill="#60a5fa"/>
  <rect x="9.33" y="9.33" width="5.34" height="5.34" fill="#60a5fa"/>
  <rect x="9.33" y="14.67" width="5.34" height="5.33" fill="#60a5fa"/>
  <rect x="14.67" y="14.67" width="5.33" height="5.33" fill="#60a5fa"/>

  <!-- Cell with number clue -->
  <rect x="4" y="9.33" width="5.33" height="5.34" fill="#dbeafe"/>
  <text x="6.67" y="13" font-family="Arial" font-size="5" font-weight="bold" fill="#1e40af" text-anchor="middle">5</text>

  <!-- Arrows showing range/visibility -->
  <path d="M6.67 10 L6.67 5" stroke="#2563eb" stroke-width="1" stroke-linecap="round"/>
  <path d="M6.67 14 L6.67 19" stroke="#2563eb" stroke-width="1" stroke-linecap="round"/>
  <path d="M5 12 L4.5 12" stroke="#2563eb" stroke-width="1" stroke-linecap="round"/>
  <path d="M8.5 12 L14 12" stroke="#2563eb" stroke-width="1" stroke-linecap="round"/>

  <!-- Row/column indicators -->
  <text x="1.5" y="7" font-family="Arial" font-size="2.5" fill="#60a5fa">2</text>
  <text x="1.5" y="12.5" font-family="Arial" font-size="2.5" fill="#60a5fa">5</text>
  <text x="1.5" y="17.5" font-family="Arial" font-size="2.5" fill="#60a5fa">2</text>

  <text x="6.5" y="2.5" font-family="Arial" font-size="2.5" fill="#60a5fa">2</text>
  <text x="12" y="2.5" font-family="Arial" font-size="2.5" fill="#60a5fa">3</text>
  <text x="17.5" y="2.5" font-family="Arial" font-size="2.5" fill="#60a5fa">2</text>
</svg>
