<svg viewBox="0 0 24 24" fill="none" xmlns="http://www.w3.org/2000/svg">
  <!-- Riddles: Classic riddles to solve -->

  <!-- Background -->
  <rect x="1" y="1" width="22" height="22" rx="2" fill="#fef2f2"/>

  <!-- Scroll/parchment -->
  <path d="M4 4 Q3 4 3 5 L3 19 Q3 20 4 20 L18 20 Q19 20 19 19 L19 7 L16 4 Z" fill="#fef3c7" stroke="#ca8a04" stroke-width="0.8"/>
  <path d="M16 4 L16 7 L19 7" fill="none" stroke="#ca8a04" stroke-width="0.8"/>

  <!-- Riddle text lines -->
  <line x1="5" y1="9" x2="17" y2="9" stroke="#d97706" stroke-width="0.7" stroke-linecap="round"/>
  <line x1="5" y1="11.5" x2="15" y2="11.5" stroke="#d97706" stroke-width="0.7" stroke-linecap="round"/>
  <line x1="5" y1="14" x2="16" y2="14" stroke="#d97706" stroke-width="0.7" stroke-linecap="round"/>
  <line x1="5" y1="16.5" x2="12" y2="16.5" stroke="#d97706" stroke-width="0.7" stroke-linecap="round"/>

  <!-- Big question mark (mystery) -->
  <circle cx="18" cy="16" r="4.5" fill="#f59e0b"/>
  <text x="18" y="18.5" font-family="Arial" font-size="7" font-weight="bold" fill="#ffffff" text-anchor="middle">?</text>

  <!-- Thinking bubbles -->
  <circle cx="21" cy="6" r="1.5" fill="#fed7aa"/>
  <circle cx="22" cy="3.5" r="1" fill="#fed7aa"/>
  <circle cx="22.5" cy="1.5" r="0.6" fill="#fed7aa"/>

  <!-- Lightbulb hint -->
  <path d="M6 3 Q4 3 4 5 Q4 6.5 5 7 L5 8 L7 8 L7 7 Q8 6.5 8 5 Q8 3 6 3" fill="#fef08a" stroke="#eab308" stroke-width="0.5"/>
  <line x1="5" y1="8.5" x2="7" y2="8.5" stroke="#eab308" stroke-width="0.5"/>
  <line x1="5.2" y1="9" x2="6.8" y2="9" stroke="#eab308" stroke-width="0.5"/>
</svg>
