<svg viewBox="0 0 24 24" fill="none" xmlns="http://www.w3.org/2000/svg">
  <!-- Sixteen: Abstract 4x4 sliding grid -->

  <!-- Background circle -->
  <circle cx="12" cy="12" r="10" fill="#ecfeff" stroke="#06b6d4" stroke-width="1.5"/>

  <!-- 4x4 grid representation -->
  <rect x="5" y="5" width="3" height="3" rx="0.5" fill="#06b6d4"/>
  <rect x="8.5" y="5" width="3" height="3" rx="0.5" fill="#0891b2"/>
  <rect x="12" y="5" width="3" height="3" rx="0.5" fill="#06b6d4"/>
  <rect x="15.5" y="5" width="3" height="3" rx="0.5" fill="#0891b2"/>

  <rect x="5" y="8.5" width="3" height="3" rx="0.5" fill="#0891b2"/>
  <rect x="8.5" y="8.5" width="3" height="3" rx="0.5" fill="#06b6d4"/>
  <rect x="12" y="8.5" width="3" height="3" rx="0.5" fill="#0891b2"/>
  <rect x="15.5" y="8.5" width="3" height="3" rx="0.5" fill="#06b6d4"/>

  <rect x="5" y="12" width="3" height="3" rx="0.5" fill="#06b6d4"/>
  <rect x="8.5" y="12" width="3" height="3" rx="0.5" fill="#0891b2"/>
  <rect x="12" y="12" width="3" height="3" rx="0.5" fill="#06b6d4"/>
  <rect x="15.5" y="12" width="3" height="3" rx="0.5" fill="#0891b2"/>

  <rect x="5" y="15.5" width="3" height="3" rx="0.5" fill="#0891b2"/>
  <rect x="8.5" y="15.5" width="3" height="3" rx="0.5" fill="#06b6d4"/>
  <rect x="12" y="15.5" width="3" height="3" rx="0.5" fill="#0891b2"/>
  <!-- Empty space bottom right -->
  <rect x="15.5" y="15.5" width="3" height="3" rx="0.5" fill="none" stroke="#67e8f9" stroke-width="0.5" stroke-dasharray="1,1"/>
</svg>
