<svg viewBox="0 0 24 24" fill="none" xmlns="http://www.w3.org/2000/svg">
  <!-- Str8ts: White cells with sequences, black cells blocking -->

  <!-- Background -->
  <rect x="1" y="1" width="22" height="22" rx="2" fill="#eff6ff"/>

  <!-- Grid -->
  <rect x="2" y="2" width="20" height="20" rx="1" fill="none" stroke="#3b82f6" stroke-width="1.5"/>
  <line x1="7" y1="2" x2="7" y2="22" stroke="#93c5fd" stroke-width="0.5"/>
  <line x1="12" y1="2" x2="12" y2="22" stroke="#93c5fd" stroke-width="0.5"/>
  <line x1="17" y1="2" x2="17" y2="22" stroke="#93c5fd" stroke-width="0.5"/>
  <line x1="2" y1="7" x2="22" y2="7" stroke="#93c5fd" stroke-width="0.5"/>
  <line x1="2" y1="12" x2="22" y2="12" stroke="#93c5fd" stroke-width="0.5"/>
  <line x1="2" y1="17" x2="22" y2="17" stroke="#93c5fd" stroke-width="0.5"/>

  <!-- Black blocking cells -->
  <rect x="2" y="2" width="5" height="5" fill="#1e3a5f"/>
  <rect x="17" y="2" width="5" height="5" fill="#1e3a5f"/>
  <rect x="12" y="12" width="5" height="5" fill="#1e3a5f"/>
  <rect x="2" y="17" width="5" height="5" fill="#1e3a5f"/>
  <rect x="17" y="17" width="5" height="5" fill="#1e3a5f"/>

  <!-- Black cell with given number -->
  <rect x="7" y="7" width="5" height="5" fill="#1e3a5f"/>
  <text x="9.5" y="11" font-family="Arial" font-size="4" font-weight="bold" fill="#60a5fa" text-anchor="middle">7</text>

  <!-- White cells with sequence (consecutive numbers) -->
  <!-- Highlighted compartment showing 1-2-3 sequence -->
  <rect x="7" y="2" width="10" height="5" fill="#dbeafe" stroke="#3b82f6" stroke-width="1"/>
  <text x="9.5" y="5.5" font-family="Arial" font-size="4" font-weight="bold" fill="#1d4ed8" text-anchor="middle">1</text>
  <text x="14.5" y="5.5" font-family="Arial" font-size="4" font-weight="bold" fill="#1d4ed8" text-anchor="middle">2</text>

  <!-- Other filled cells -->
  <text x="4.5" y="11" font-family="Arial" font-size="4" font-weight="bold" fill="#3b82f6" text-anchor="middle">3</text>
  <text x="14.5" y="11" font-family="Arial" font-size="4" font-weight="bold" fill="#3b82f6" text-anchor="middle">4</text>
  <text x="19.5" y="11" font-family="Arial" font-size="4" font-weight="bold" fill="#3b82f6" text-anchor="middle">5</text>
  <text x="9.5" y="16" font-family="Arial" font-size="4" font-weight="bold" fill="#3b82f6" text-anchor="middle">6</text>
  <text x="9.5" y="21" font-family="Arial" font-size="4" font-weight="bold" fill="#3b82f6" text-anchor="middle">8</text>
  <text x="14.5" y="21" font-family="Arial" font-size="4" font-weight="bold" fill="#3b82f6" text-anchor="middle">9</text>
</svg>
