<svg viewBox="0 0 24 24" fill="none" xmlns="http://www.w3.org/2000/svg">
  <!-- Trivia: Multi-category quiz game -->

  <!-- Background -->
  <rect x="1" y="1" width="22" height="22" rx="2" fill="#fdf4ff"/>

  <!-- Brain/lightbulb hybrid icon -->
  <path d="M12 3 C8 3 5 6 5 9.5 C5 12 6.5 14 8 15 L8 17 L16 17 L16 15 C17.5 14 19 12 19 9.5 C19 6 16 3 12 3 Z"
        fill="#f0abfc" stroke="#a855f7" stroke-width="1"/>

  <!-- Brain wrinkles -->
  <path d="M9 7 Q12 8 10 10 Q8 12 11 13" fill="none" stroke="#a855f7" stroke-width="0.7"/>
  <path d="M14 6 Q12 8 14 10 Q16 12 13 13" fill="none" stroke="#a855f7" stroke-width="0.7"/>

  <!-- Bulb base -->
  <rect x="9" y="17" width="6" height="2" rx="0.5" fill="#d8b4fe"/>
  <rect x="10" y="19" width="4" height="1.5" rx="0.5" fill="#c084fc"/>

  <!-- Sparkle effects -->
  <circle cx="4" cy="5" r="1" fill="#fbbf24"/>
  <circle cx="20" cy="6" r="1.2" fill="#fbbf24"/>
  <circle cx="3" cy="14" r="0.8" fill="#fbbf24"/>
  <circle cx="21" cy="13" r="0.8" fill="#fbbf24"/>

  <!-- Answer options A B C D at bottom -->
  <circle cx="5" cy="21" r="1.5" fill="#ef4444"/>
  <circle cx="9.5" cy="21" r="1.5" fill="#22c55e"/>
  <circle cx="14.5" cy="21" r="1.5" fill="#3b82f6"/>
  <circle cx="19" cy="21" r="1.5" fill="#eab308"/>
  <text x="5" y="22" font-family="Arial" font-size="2" font-weight="bold" fill="#ffffff" text-anchor="middle">A</text>
  <text x="9.5" y="22" font-family="Arial" font-size="2" font-weight="bold" fill="#ffffff" text-anchor="middle">B</text>
  <text x="14.5" y="22" font-family="Arial" font-size="2" font-weight="bold" fill="#ffffff" text-anchor="middle">C</text>
  <text x="19" y="22" font-family="Arial" font-size="2" font-weight="bold" fill="#ffffff" text-anchor="middle">D</text>
</svg>
