<svg viewBox="0 0 24 24" fill="none" xmlns="http://www.w3.org/2000/svg">
  <!-- World Map Fill: Name countries to fill the map -->

  <!-- Background -->
  <rect x="1" y="1" width="22" height="22" rx="2" fill="#ecfdf5"/>

  <!-- Simplified world map silhouette -->
  <!-- Americas (left side) -->
  <path d="M3 7 L4 5 L6 5 L7 7 L6 9 L7 12 L5 15 L6 18 L4 19 L3 17 L4 14 L3 11 Z" fill="#86efac" stroke="#16a34a" stroke-width="0.5"/>

  <!-- Europe/Africa (middle) -->
  <path d="M9 5 L12 4 L14 5 L13 8 L11 8 L10 6 Z" fill="#86efac" stroke="#16a34a" stroke-width="0.5"/>
  <path d="M10 9 L13 9 L14 12 L13 16 L11 18 L9 16 L9 12 Z" fill="#86efac" stroke="#16a34a" stroke-width="0.5"/>

  <!-- Asia (right side) -->
  <path d="M15 4 L19 3 L21 5 L20 9 L17 10 L15 8 L16 6 Z" fill="#86efac" stroke="#16a34a" stroke-width="0.5"/>
  <path d="M16 11 L20 10 L21 13 L19 15 L17 14 Z" fill="#86efac" stroke="#16a34a" stroke-width="0.5"/>

  <!-- Australia -->
  <path d="M17 17 L21 16 L21 19 L19 20 L17 19 Z" fill="#86efac" stroke="#16a34a" stroke-width="0.5"/>

  <!-- Text input indicator -->
  <rect x="2" y="20" width="10" height="2.5" rx="0.5" fill="#ffffff" stroke="#16a34a" stroke-width="0.5"/>
  <line x1="3" y1="21.25" x2="6" y2="21.25" stroke="#16a34a" stroke-width="0.5"/>

  <!-- Checkmark for completion -->
  <circle cx="19" cy="20" r="2.5" fill="#22c55e"/>
  <path d="M17.5 20 L18.5 21 L20.5 19" stroke="#ffffff" stroke-width="1" stroke-linecap="round" stroke-linejoin="round" fill="none"/>
</svg>
